<svg width="832" height="206" xmlns="http://www.w3.org/2000/svg" viewBox="0 0 832 206" xmlns:xlink="http://www.w3.org/1999/xlink" overflow="hidden"><defs><clipPath id="clip0"><rect x="224" y="257" width="832" height="206"/></clipPath><linearGradient x1="225" y1="378" x2="1055" y2="378" gradientUnits="userSpaceOnUse" spreadMethod="reflect" id="fill1"><stop offset="0" stop-color="#007DFE"/><stop offset="0.38" stop-color="#007DFE"/><stop offset="0.38" stop-color="#212224"/><stop offset="1" stop-color="#212224"/></linearGradient></defs><g clip-path="url(#clip0)" transform="translate(-224 -257)"><path d="M676.166 386.445 670.736 387.156C669.372 387.63 668.393 388.311 667.799 389.2L666.909 392.667 668.066 396.489C668.838 397.496 669.846 398.267 671.092 398.8 672.339 399.333 673.673 399.6 675.098 399.6 677.353 399.6 679.518 399.096 681.595 398.089 683.672 397.081 685.393 395.481 686.758 393.289 687.44 392.192 687.952 390.926 688.293 389.489 688.318 389.251 688.343 389.014 688.369 388.777L686.58 388.044C683.197 386.978 679.726 386.445 676.166 386.445ZM901.228 362.267C898.854 362.267 896.629 362.859 894.552 364.045 892.476 365.23 890.785 366.948 889.479 369.2L887.521 377.555 889.479 385.911C890.785 388.163 892.476 389.852 894.552 390.978 896.629 392.104 898.854 392.667 901.228 392.667 903.601 392.667 905.827 392.104 907.903 390.978 909.98 389.852 911.671 388.163 912.977 385.911L914.935 377.555 912.977 369.2C911.671 366.948 909.98 365.23 907.903 364.045 905.827 362.859 903.601 362.267 901.228 362.267ZM370.515 362.267C368.142 362.267 365.916 362.859 363.84 364.045 361.763 365.23 360.072 366.948 358.766 369.2L356.808 377.555 358.766 385.911C360.072 388.163 361.763 389.852 363.84 390.978 365.916 392.104 368.142 392.667 370.515 392.667 372.889 392.667 375.114 392.104 377.191 390.978 379.268 389.852 380.959 388.163 382.264 385.911L384.222 377.555 382.264 369.2C380.959 366.948 379.268 365.23 377.191 364.045 375.114 362.859 372.889 362.267 370.515 362.267ZM482.098 361.556C479.487 361.556 477.054 362.119 474.799 363.244 472.545 364.37 470.764 365.97 469.459 368.044L467.501 375.778 469.459 383.422C470.764 385.555 472.545 387.185 474.799 388.311 477.054 389.437 479.487 390 482.098 390 484.471 390 486.786 389.496 489.041 388.489 491.295 387.481 493.135 385.941 494.559 383.867L496.695 375.778 495.449 369.378C494.618 367.6 493.491 366.119 492.067 364.933 490.643 363.748 489.07 362.889 487.349 362.356 485.628 361.822 483.878 361.556 482.098 361.556ZM594.338 334.889C600.865 334.889 605.938 335.422 609.558 336.489 613.178 337.555 616.411 338.741 619.26 340.044L619.26 340.045 619.26 371.511 619.26 371.511C617.479 368.904 615.284 366.859 612.673 365.378 610.062 363.896 607.451 362.83 604.841 362.178 602.23 361.526 599.916 361.2 597.898 361.2 594.694 361.2 591.697 361.941 588.908 363.422 586.12 364.904 583.895 366.859 582.233 369.289L579.741 377.555 582.233 386.533C583.895 388.963 586.12 390.8 588.908 392.044 591.697 393.289 594.694 393.911 597.898 393.911 600.509 393.911 603.09 393.555 605.642 392.844 608.193 392.133 610.656 391.007 613.029 389.467 615.403 387.926 617.479 385.911 619.26 383.422L619.26 383.422 619.26 414.711 619.26 414.711C616.411 416.252 613.178 417.556 609.558 418.622 605.938 419.689 600.865 420.222 594.338 420.222 584.606 420.222 575.943 418.504 568.348 415.067 560.753 411.63 554.789 406.711 550.458 400.311 546.126 393.911 543.96 386.326 543.96 377.556L543.96 377.555 543.96 377.555C543.96 368.667 546.126 361.052 550.458 354.711 554.789 348.37 560.753 343.481 568.348 340.044 575.943 336.607 584.606 334.889 594.338 334.889ZM468.747 334.889C475.63 334.889 481.772 336.459 487.171 339.6 489.871 341.17 492.297 343.104 494.448 345.4L496.695 348.165 496.695 336.667 496.695 336.667 529.628 336.667 529.628 336.667 529.628 416.666 529.628 416.667C529.628 427.807 527.551 436.696 523.397 443.333 519.243 449.97 513.577 454.741 506.397 457.644 499.217 460.548 490.999 462 481.742 462 470.23 462 461.063 460.43 454.239 457.289 447.415 454.148 442.371 449.763 439.108 444.133 435.844 438.504 433.678 432.015 432.61 424.667L432.61 424.667 432.61 424.666 465.899 424.666C466.373 427.63 467.264 429.881 468.569 431.422 469.874 432.963 471.506 434 473.464 434.533 475.422 435.066 477.588 435.333 479.962 435.333 483.522 435.333 486.548 434.592 489.041 433.111 491.533 431.629 493.431 429.496 494.737 426.711 496.042 423.926 496.695 420.578 496.695 416.666L496.695 403.347 494.448 406.133C492.297 408.445 489.871 410.385 487.171 411.956 481.772 415.096 475.63 416.667 468.747 416.667 462.576 416.667 456.583 415.215 450.768 412.311 444.953 409.407 440.176 404.933 436.437 398.889 432.699 392.844 430.83 385.141 430.83 375.778L430.83 375.778 430.83 375.778C430.83 366.296 432.699 358.563 436.437 352.578 440.176 346.593 444.953 342.148 450.768 339.244 456.583 336.341 462.576 334.889 468.747 334.889ZM1025.09 334.711C1036.25 334.711 1044.02 337.348 1048.41 342.622 1052.8 347.896 1055 355.393 1055 365.111L1055 365.111 1055 418.444 1055 418.444 1018.51 418.444 1018.51 418.444 1018.51 368.667C1018.51 364.993 1017.97 362.119 1016.91 360.044 1015.84 357.97 1013.52 356.933 1009.96 356.933 1007.94 356.933 1006.16 357.348 1004.62 358.178 1003.08 359.007 1001.89 360.282 1001.06 362 1000.23 363.719 999.816 365.941 999.816 368.667L999.816 418.444 999.816 418.444 965.103 418.444 965.103 418.444 965.103 336.667 965.103 336.667 999.816 336.667 999.816 336.667 999.816 348.578C1002.07 344.43 1005.25 341.081 1009.34 338.533 1013.43 335.985 1018.69 334.711 1025.09 334.711ZM901.228 334.711C910.722 334.711 919.207 336.43 926.684 339.867 934.16 343.304 940.035 348.222 944.307 354.622 948.579 361.022 950.716 368.667 950.716 377.555L950.716 377.555 950.716 377.556C950.716 386.326 948.579 393.911 944.307 400.311 940.035 406.711 934.16 411.63 926.684 415.067 919.207 418.504 910.722 420.222 901.228 420.222 891.734 420.222 883.248 418.504 875.772 415.067 868.296 411.63 862.421 406.711 858.149 400.311 853.876 393.911 851.74 386.326 851.74 377.556L851.74 377.555 851.74 377.555C851.74 368.667 853.876 361.022 858.149 354.622 862.421 348.222 868.296 343.304 875.772 339.867 883.248 336.43 891.734 334.711 901.228 334.711ZM370.515 334.711C380.009 334.711 388.495 336.43 395.971 339.867 403.448 343.304 409.322 348.222 413.594 354.622 417.867 361.022 420.003 368.667 420.003 377.555L420.003 377.555 420.003 377.556C420.003 386.326 417.867 393.911 413.594 400.311 409.322 406.711 403.448 411.63 395.971 415.067 388.495 418.504 380.009 420.222 370.515 420.222 361.021 420.222 352.536 418.504 345.059 415.067 337.583 411.63 331.708 406.711 327.436 400.311 323.164 393.911 321.027 386.326 321.027 377.556L321.027 377.555 321.027 377.555C321.027 368.667 323.164 361.022 327.436 354.622 331.708 348.222 337.583 343.304 345.059 339.867 352.536 336.43 361.021 334.711 370.515 334.711ZM680.26 334C687.974 334 694.976 335.067 701.266 337.2 707.556 339.333 712.54 342.444 716.219 346.533 719.898 350.622 721.737 355.63 721.737 361.555L721.737 361.556 721.737 418.444 721.737 418.444 688.805 418.444 688.805 418.444 688.805 406.517 687.737 408.756C685.126 412.489 681.565 415.333 677.056 417.289 672.546 419.244 667.443 420.222 661.747 420.222 656.406 420.222 651.481 419.274 646.972 417.378 642.462 415.482 638.842 412.607 636.113 408.756 633.383 404.904 632.019 400.193 632.019 394.622L632.019 394.622 632.019 394.622C632.019 386.8 634.778 380.666 640.296 376.222 645.815 371.778 653.796 369.555 664.239 369.555 668.511 369.555 672.635 369.911 676.611 370.622 680.587 371.333 684.147 372.311 687.292 373.555L688.805 374.315 688.805 370.089C688.805 368.548 688.567 367.126 688.093 365.822 687.618 364.519 686.846 363.363 685.778 362.356 684.71 361.348 683.286 360.578 681.506 360.044 679.726 359.511 677.59 359.245 675.098 359.245 671.775 359.245 668.274 359.63 664.595 360.4 660.916 361.17 657.652 362.059 654.804 363.067 651.956 364.074 649.998 364.874 648.93 365.467L638.427 343.067 638.427 343.067 638.427 343.067C644.123 340.815 650.562 338.741 657.742 336.844 664.921 334.948 672.427 334 680.26 334ZM745.964 308.222 778.896 308.222 778.896 308.222 778.896 336.667 794.027 336.667 794.027 336.667 794.027 364.222 794.027 364.222 778.896 364.222 778.896 418.444 778.896 418.444 745.964 418.444 745.964 418.444 745.964 364.222 730.833 364.222 730.833 364.222 730.833 336.667 730.833 336.667 745.964 336.667 745.964 308.222 745.964 308.222ZM225 294 264.163 294 264.163 294 264.163 385.555 314.897 385.555 314.897 385.556 314.897 418.444 314.897 418.444 225 418.444 225 418.444 225 294 225 294Z" fill="url(#fill1)" fill-rule="evenodd"/><path d="M820 288.719C809.396 288.719 800.801 297.315 800.801 307.918 800.801 318.522 809.396 327.118 820 327.118 830.604 327.118 839.199 318.522 839.199 307.918 839.199 297.315 830.604 288.719 820 288.719ZM819.919 258C837.149 258 852.341 266.73 861.312 280.009L862.461 282.125 870 258 870 258 862.461 282.125 865.914 288.488C868.44 294.46 869.837 301.026 869.837 307.918 869.837 325.149 861.107 340.341 847.828 349.311L840.165 353.471 820 418 799.868 353.577 792.009 349.311C778.73 340.341 770 325.149 770 307.918 770 301.026 771.397 294.46 773.923 288.488L777.48 281.935 777.48 281.935 778.525 280.009C787.496 266.73 802.688 258 819.919 258ZM770 258 770 258 777.48 281.935 777.48 281.935Z" fill="#007DFE" fill-rule="evenodd"/></g></svg>